<svg xmlns="http://www.w3.org/2000/svg" enable-background="new 0 0 98 98" viewBox="0 0 98 98"><path d="M89.6899,1H8.3101C4.2793,1,1,4.2793,1,8.31v81.3799C1,93.7207,4.2793,97,8.3101,97h81.3799
		C93.7207,97,97,93.7207,97,89.6899V8.31C97,4.2793,93.7207,1,89.6899,1z M95,89.6899C95,92.6176,92.6177,95,89.6899,95H8.3101
		C5.3823,95,3,92.6176,3,89.6899v-5.54h5.9263v4.0659c0,2.4307,1.9775,4.4082,4.4082,4.4082s4.4082-1.9775,4.4082-4.4082v-4.0659
		h5.4502v4.0659c0,2.4307,1.9775,4.4082,4.4082,4.4082s4.4082-1.9775,4.4082-4.4082v-4.0659h19.7173v4.0659
		c0,2.4307,1.9775,4.4082,4.4082,4.4082s4.4082-1.9775,4.4082-4.4082v-4.0659h5.4468v4.0703c0,2.4263,1.9785,4.3999,4.4102,4.3999
		s4.4102-1.9736,4.4102-4.3999v-4.0703h5.4502v4.0659c0,2.4307,1.9775,4.4082,4.4082,4.4082s4.4082-1.9775,4.4082-4.4082v-4.0659H95
		V89.6899z M10.9263,88.2158V78.0786c0-1.3281,1.0801-2.4082,2.4082-2.4082s2.4082,1.0801,2.4082,2.4082v10.1372
		c0,1.3281-1.0801,2.4082-2.4082,2.4082S10.9263,89.5439,10.9263,88.2158z M25.1929,88.2158V78.0786
		c0-1.3281,1.0801-2.4082,2.4082-2.4082s2.4082,1.0801,2.4082,2.4082v10.1372c0,1.3281-1.0801,2.4082-2.4082,2.4082
		S25.1929,89.5439,25.1929,88.2158z M53.7266,88.2158V78.0786c0-1.3281,1.0801-2.4082,2.4082-2.4082s2.4082,1.0801,2.4082,2.4082
		v10.1372c0,1.3281-1.0801,2.4082-2.4082,2.4082S53.7266,89.5439,53.7266,88.2158z M67.9897,88.2202v-5.0703V78.08
		c0-1.3291,1.0811-2.4102,2.4102-2.4102c0.6421,0,1.2466,0.2515,1.7031,0.707c0.4561,0.4561,0.707,1.061,0.707,1.7031v5.0698v5.0703
		c0,1.3232-1.0811,2.3999-2.4102,2.3999S67.9897,89.5434,67.9897,88.2202z M82.2603,88.2158V78.0786
		c0-1.3281,1.0801-2.4082,2.4082-2.4082s2.4082,1.0801,2.4082,2.4082v10.1372c0,1.3281-1.0801,2.4082-2.4082,2.4082
		S82.2603,89.5439,82.2603,88.2158z M95,82.1499h-5.9233v-4.0713c0-2.4307-1.9775-4.4082-4.4082-4.4082
		s-4.4082,1.9775-4.4082,4.4082v4.0713h-5.4502V78.08c0-1.1763-0.459-2.2837-1.293-3.1177
		c-0.8345-0.8335-1.9414-1.2925-3.1172-1.2925c-2.4316,0-4.4102,1.9785-4.4102,4.4102v4.0698H60.543v-4.0713
		c0-2.4307-1.9775-4.4082-4.4082-4.4082s-4.4082,1.9775-4.4082,4.4082v4.0713H32.0093v-4.0713c0-2.4307-1.9775-4.4082-4.4082-4.4082
		s-4.4082,1.9775-4.4082,4.4082v4.0713h-5.4502v-4.0713c0-2.4307-1.9775-4.4082-4.4082-4.4082s-4.4082,1.9775-4.4082,4.4082v4.0713
		H3v-20.77h5.9263v4.0703c0,2.4307,1.9775,4.4082,4.4082,4.4082s4.4082-1.9775,4.4082-4.4082v-4.0703h5.4473v4.0703
		c0,2.4316,1.9785,4.4097,4.4102,4.4097s4.4097-1.978,4.4097-4.4097v-4.0703H37.46v4.0703c0,2.4307,1.9775,4.4082,4.4082,4.4082
		s4.4082-1.9775,4.4082-4.4082v-4.0703h33.9839v4.0703c0,2.4307,1.9775,4.4082,4.4082,4.4082s4.4082-1.9775,4.4082-4.4082v-4.0703
		H95V82.1499z M10.9263,65.4502V55.313c0-1.3281,1.0801-2.4082,2.4082-2.4082s2.4082,1.0801,2.4082,2.4082v10.1372
		c0,1.3281-1.0801,2.4082-2.4082,2.4082S10.9263,66.7783,10.9263,65.4502z M25.1899,65.4502v-5.0703V55.31
		c0-1.3291,1.0811-2.4102,2.4102-2.4102c0.6421,0,1.2466,0.251,1.7026,0.707s0.707,1.061,0.707,1.7031v5.0698v5.0703
		c0,1.3286-1.0811,2.4097-2.4097,2.4097C26.271,67.8598,25.1899,66.7788,25.1899,65.4502z M39.46,65.4502V55.313
		c0-1.3281,1.0801-2.4082,2.4082-2.4082s2.4082,1.0801,2.4082,2.4082v10.1372c0,1.3281-1.0801,2.4082-2.4082,2.4082
		S39.46,66.7783,39.46,65.4502z M82.2603,65.4502V55.313c0-1.3281,1.0801-2.4082,2.4082-2.4082s2.4082,1.0801,2.4082,2.4082v10.1372
		c0,1.3281-1.0801,2.4082-2.4082,2.4082S82.2603,66.7783,82.2603,65.4502z M95,59.3798h-5.9233V55.313
		c0-2.4307-1.9775-4.4082-4.4082-4.4082s-4.4082,1.9775-4.4082,4.4082v4.0669H46.2764V55.313c0-2.4307-1.9775-4.4082-4.4082-4.4082
		S37.46,52.8823,37.46,55.313v4.0669h-5.4502V55.31c0-1.1763-0.459-2.2837-1.293-3.1172c-0.8335-0.834-1.9404-1.293-3.1167-1.293
		c-2.4316,0-4.4102,1.9785-4.4102,4.4102v4.0698h-5.4473V55.313c0-2.4307-1.9775-4.4082-4.4082-4.4082s-4.4082,1.9775-4.4082,4.4082
		v4.0669H3V38.6201h20.1929v4.064c0,2.4307,1.9775,4.4082,4.4082,4.4082s4.4082-1.9775,4.4082-4.4082v-4.064h19.7173v4.064
		c0,2.4307,1.9775,4.4082,4.4082,4.4082s4.4082-1.9775,4.4082-4.4082v-4.064h5.4507v4.064c0,2.4307,1.9775,4.4082,4.4082,4.4082
		s4.4082-1.9775,4.4082-4.4082v-4.064h5.4502v4.064c0,2.4307,1.9775,4.4082,4.4082,4.4082s4.4082-1.9775,4.4082-4.4082v-4.064H95
		V59.3798z M25.1929,42.684V32.5473c0-1.3281,1.0801-2.4082,2.4082-2.4082s2.4082,1.0801,2.4082,2.4082V42.684
		c0,1.3281-1.0801,2.4082-2.4082,2.4082S25.1929,44.0122,25.1929,42.684z M53.7266,42.684V32.5473
		c0-1.3281,1.0801-2.4082,2.4082-2.4082s2.4082,1.0801,2.4082,2.4082V42.684c0,1.3281-1.0801,2.4082-2.4082,2.4082
		S53.7266,44.0122,53.7266,42.684z M67.9937,42.684V32.5473c0-1.3281,1.0801-2.4082,2.4082-2.4082s2.4082,1.0801,2.4082,2.4082
		V42.684c0,1.3281-1.0801,2.4082-2.4082,2.4082S67.9937,44.0122,67.9937,42.684z M82.2603,42.684V32.5473
		c0-1.3281,1.0801-2.4082,2.4082-2.4082s2.4082,1.0801,2.4082,2.4082V42.684c0,1.3281-1.0801,2.4082-2.4082,2.4082
		S82.2603,44.0122,82.2603,42.684z M95,36.6201h-5.9233v-4.0728c0-2.4307-1.9775-4.4082-4.4082-4.4082s-4.4082,1.9775-4.4082,4.4082
		v4.0728h-5.4502v-4.0728c0-2.4307-1.9775-4.4082-4.4082-4.4082s-4.4082,1.9775-4.4082,4.4082v4.0728H60.543v-4.0728
		c0-2.4307-1.9775-4.4082-4.4082-4.4082s-4.4082,1.9775-4.4082,4.4082v4.0728H32.0093v-4.0728c0-2.4307-1.9775-4.4082-4.4082-4.4082
		s-4.4082,1.9775-4.4082,4.4082v4.0728H3v-20.77h20.1929v4.0684c0,2.4307,1.9775,4.4082,4.4082,4.4082s4.4082-1.9775,4.4082-4.4082
		v-4.0684H37.46v4.0684c0,2.4307,1.9775,4.4082,4.4082,4.4082s4.4082-1.9775,4.4082-4.4082v-4.0684h5.4502v4.0684
		c0,2.4307,1.9775,4.4082,4.4082,4.4082s4.4082-1.9775,4.4082-4.4082v-4.0684h5.4507v4.0684c0,2.4307,1.9775,4.4082,4.4082,4.4082
		s4.4082-1.9775,4.4082-4.4082v-4.0684h5.4502v4.0684c0,2.4307,1.9775,4.4082,4.4082,4.4082s4.4082-1.9775,4.4082-4.4082v-4.0684H95
		V36.6201z M25.1929,19.9184V9.7812c0-1.3281,1.0801-2.4082,2.4082-2.4082s2.4082,1.0801,2.4082,2.4082v10.1372
		c0,1.3281-1.0801,2.4082-2.4082,2.4082S25.1929,21.2465,25.1929,19.9184z M39.46,19.9184V9.7812
		c0-1.3281,1.0801-2.4082,2.4082-2.4082s2.4082,1.0801,2.4082,2.4082v10.1372c0,1.3281-1.0801,2.4082-2.4082,2.4082
		S39.46,21.2465,39.46,19.9184z M53.7266,19.9184V9.7812c0-1.3281,1.0801-2.4082,2.4082-2.4082s2.4082,1.0801,2.4082,2.4082v10.1372
		c0,1.3281-1.0801,2.4082-2.4082,2.4082S53.7266,21.2465,53.7266,19.9184z M67.9937,19.9184V9.7812
		c0-1.3281,1.0801-2.4082,2.4082-2.4082s2.4082,1.0801,2.4082,2.4082v10.1372c0,1.3281-1.0801,2.4082-2.4082,2.4082
		S67.9937,21.2465,67.9937,19.9184z M82.2603,19.9184V9.7812c0-1.3281,1.0801-2.4082,2.4082-2.4082s2.4082,1.0801,2.4082,2.4082
		v10.1372c0,1.3281-1.0801,2.4082-2.4082,2.4082S82.2603,21.2465,82.2603,19.9184z M95,13.8501h-5.9233V9.7812
		c0-2.4307-1.9775-4.4082-4.4082-4.4082s-4.4082,1.9775-4.4082,4.4082v4.0688h-5.4502V9.7812c0-2.4307-1.9775-4.4082-4.4082-4.4082
		s-4.4082,1.9775-4.4082,4.4082v4.0688H60.543V9.7812c0-2.4307-1.9775-4.4082-4.4082-4.4082s-4.4082,1.9775-4.4082,4.4082v4.0688
		h-5.4502V9.7812c0-2.4307-1.9775-4.4082-4.4082-4.4082S37.46,7.3505,37.46,9.7812v4.0688h-5.4507V9.7812
		c0-2.4307-1.9775-4.4082-4.4082-4.4082s-4.4082,1.9775-4.4082,4.4082v4.0688H3V8.31C3,5.3823,5.3823,3,8.3101,3h81.3799
		C92.6177,3,95,5.3823,95,8.31V13.8501z"/></svg>